<?xml version="1.0" encoding="utf-8"?>
<svg xmlns="http://www.w3.org/2000/svg" height="256" width="256" viewBox="0 0 256 256">
  <g>
    <path id="path1" transform="rotate(0,128,128) translate(1,1) scale(7.9375,7.9375)  " fill="#000000" d="M15.799988,7.9000244C11.400024,7.9000244 7.7999878,11.5 7.7999878,15.900024 7.7999878,20.300018 11.400024,23.900024 15.799988,23.900024 20.200012,23.900024 23.799988,20.300018 23.799988,15.900024 23.799988,11.400024 20.299988,7.9000244 15.799988,7.9000244z M12.600037,0L15.5,4.1000061 16.900024,4.1000061 17.100037,4.1000061 20.100037,0.20001221 24.600037,2.2000122 23.799988,7.1000061 23.900024,7.2000122C24.200012,7.6000061,24.600037,8,25,8.4000244L25.100037,8.6000061 30.200012,7.9000244 32,12.5 27.700012,15.600006 27.700012,17 31.799988,20.100006 29.799988,24.600006 24.700012,23.700012 24.600037,23.800018 23.900024,24.5 23.700012,24.700012 24.400024,30.100006 19.700012,32 16.700012,27.700012 16.5,27.700012 15.200012,27.700012 14.799988,27.700012 11.5,31.900024 7,29.900024 7.9000244,24.700012 7.7999878,24.600006C7.5,24.400024,7.2999878,24.100006,7.1000366,23.900024L6.9000244,23.600006 1.7999878,24.300018 0,19.700012 4,16.800018 4,16.5 4,14.800018 0,11.700012 2,7.2000122 7,8C7.5,7.5,8,7,8.5,6.6000061L8,1.8000183z" />
  </g>
</svg>

